<mxfile host="65bd71144e">
    <diagram id="N-JIwSo6NQa0qo3Qw676" name="Page-2">
        <mxGraphModel dx="1228" dy="536" grid="1" gridSize="10" guides="1" tooltips="1" connect="1" arrows="1" fold="1" page="1" pageScale="1" pageWidth="827" pageHeight="1169" math="0" shadow="0">
            <root>
                <mxCell id="0"/>
                <mxCell id="1" parent="0"/>
                <mxCell id="sGA7hmKxJP3p-6hedCUv-1" value="Diagram Sintaks Struk Kontrol:" style="text;html=1;align=center;verticalAlign=middle;resizable=0;points=[];autosize=1;strokeColor=none;fillColor=none;fontSize=12;" parent="1" vertex="1">
                    <mxGeometry x="40" y="45" width="190" height="30" as="geometry"/>
                </mxCell>
                <mxCell id="hKbsMFtzubxS4o8_lvip-1" value="kondisi" style="rounded=1;whiteSpace=wrap;html=1;" parent="1" vertex="1">
                    <mxGeometry x="120" y="75" width="121" height="40" as="geometry"/>
                </mxCell>
                <mxCell id="hKbsMFtzubxS4o8_lvip-2" value="ulang" style="rounded=1;whiteSpace=wrap;html=1;" parent="1" vertex="1">
                    <mxGeometry x="120" y="155" width="121" height="40" as="geometry"/>
                </mxCell>
                <mxCell id="hKbsMFtzubxS4o8_lvip-3" value="" style="endArrow=classic;html=1;strokeWidth=2;entryX=0;entryY=0.5;entryDx=0;entryDy=0;" parent="1" edge="1">
                    <mxGeometry width="50" height="50" relative="1" as="geometry">
                        <mxPoint x="59.99999999999977" y="94.59999999999991" as="sourcePoint"/>
                        <mxPoint x="119.99999999999977" y="94.59999999999991" as="targetPoint"/>
                    </mxGeometry>
                </mxCell>
                <mxCell id="hKbsMFtzubxS4o8_lvip-4" value="" style="endArrow=classic;html=1;strokeWidth=2;entryX=0;entryY=0.5;entryDx=0;entryDy=0;" parent="1" target="hKbsMFtzubxS4o8_lvip-2" edge="1">
                    <mxGeometry width="50" height="50" relative="1" as="geometry">
                        <mxPoint x="91" y="95" as="sourcePoint"/>
                        <mxPoint x="130" y="104.59999999999991" as="targetPoint"/>
                        <Array as="points">
                            <mxPoint x="91" y="175"/>
                        </Array>
                    </mxGeometry>
                </mxCell>
                <mxCell id="hKbsMFtzubxS4o8_lvip-5" value="" style="endArrow=classic;html=1;strokeWidth=2;entryX=0;entryY=0.5;entryDx=0;entryDy=0;" parent="1" edge="1">
                    <mxGeometry width="50" height="50" relative="1" as="geometry">
                        <mxPoint x="241" y="94.59999999999991" as="sourcePoint"/>
                        <mxPoint x="301" y="94.59999999999991" as="targetPoint"/>
                    </mxGeometry>
                </mxCell>
                <mxCell id="hKbsMFtzubxS4o8_lvip-6" value="" style="endArrow=classic;html=1;strokeWidth=2;exitX=1;exitY=0.5;exitDx=0;exitDy=0;" parent="1" source="hKbsMFtzubxS4o8_lvip-2" edge="1">
                    <mxGeometry width="50" height="50" relative="1" as="geometry">
                        <mxPoint x="251" y="104.59999999999991" as="sourcePoint"/>
                        <mxPoint x="271" y="95" as="targetPoint"/>
                        <Array as="points">
                            <mxPoint x="271" y="175"/>
                        </Array>
                    </mxGeometry>
                </mxCell>
                <mxCell id="hKbsMFtzubxS4o8_lvip-7" value="Diagram Sintaks Kondisi:" style="text;html=1;align=center;verticalAlign=middle;resizable=0;points=[];autosize=1;strokeColor=none;fillColor=none;fontSize=12;" parent="1" vertex="1">
                    <mxGeometry x="55" y="240" width="160" height="30" as="geometry"/>
                </mxCell>
                <mxCell id="C67lPEHfHLXvaHAFfDTe-1" value="bila" style="ellipse;whiteSpace=wrap;html=1;aspect=fixed;" vertex="1" parent="1">
                    <mxGeometry x="120" y="280" width="60" height="60" as="geometry"/>
                </mxCell>
                <mxCell id="C67lPEHfHLXvaHAFfDTe-2" value="ekspresi lojik" style="rounded=1;whiteSpace=wrap;html=1;" vertex="1" parent="1">
                    <mxGeometry x="228" y="290" width="100" height="40" as="geometry"/>
                </mxCell>
                <mxCell id="C67lPEHfHLXvaHAFfDTe-3" value="maka" style="ellipse;whiteSpace=wrap;html=1;aspect=fixed;" vertex="1" parent="1">
                    <mxGeometry x="380" y="280" width="60" height="60" as="geometry"/>
                </mxCell>
                <mxCell id="C67lPEHfHLXvaHAFfDTe-4" value="" style="endArrow=classic;html=1;strokeWidth=2;entryX=0;entryY=0.5;entryDx=0;entryDy=0;exitX=1;exitY=0.5;exitDx=0;exitDy=0;" edge="1" source="C67lPEHfHLXvaHAFfDTe-1" target="C67lPEHfHLXvaHAFfDTe-2" parent="1">
                    <mxGeometry width="50" height="50" relative="1" as="geometry">
                        <mxPoint x="78" y="320" as="sourcePoint"/>
                        <mxPoint x="130.00000000000568" y="320" as="targetPoint"/>
                    </mxGeometry>
                </mxCell>
                <mxCell id="C67lPEHfHLXvaHAFfDTe-5" value="" style="endArrow=classic;html=1;strokeWidth=2;entryX=0;entryY=0.5;entryDx=0;entryDy=0;" edge="1" source="C67lPEHfHLXvaHAFfDTe-2" target="C67lPEHfHLXvaHAFfDTe-3" parent="1">
                    <mxGeometry width="50" height="50" relative="1" as="geometry">
                        <mxPoint x="189.9999999999941" y="320" as="sourcePoint"/>
                        <mxPoint x="238" y="320" as="targetPoint"/>
                    </mxGeometry>
                </mxCell>
                <mxCell id="C67lPEHfHLXvaHAFfDTe-6" value="pernyataan" style="rounded=1;whiteSpace=wrap;html=1;" vertex="1" parent="1">
                    <mxGeometry x="490" y="290" width="100" height="40" as="geometry"/>
                </mxCell>
                <mxCell id="C67lPEHfHLXvaHAFfDTe-7" value="" style="endArrow=classic;html=1;strokeWidth=2;entryX=0;entryY=0.5;entryDx=0;entryDy=0;exitX=1;exitY=0.5;exitDx=0;exitDy=0;" edge="1" parent="1" source="C67lPEHfHLXvaHAFfDTe-3" target="C67lPEHfHLXvaHAFfDTe-6">
                    <mxGeometry width="50" height="50" relative="1" as="geometry">
                        <mxPoint x="470" y="250" as="sourcePoint"/>
                        <mxPoint x="390" y="320" as="targetPoint"/>
                    </mxGeometry>
                </mxCell>
                <mxCell id="C67lPEHfHLXvaHAFfDTe-8" value="&lt;font style=&quot;font-size: 22px;&quot;&gt;;&lt;/font&gt;" style="ellipse;whiteSpace=wrap;html=1;aspect=fixed;" vertex="1" parent="1">
                    <mxGeometry x="510" y="350" width="60" height="60" as="geometry"/>
                </mxCell>
                <mxCell id="C67lPEHfHLXvaHAFfDTe-9" value="" style="endArrow=classic;html=1;strokeWidth=2;exitX=1;exitY=0.5;exitDx=0;exitDy=0;" edge="1" parent="1" source="C67lPEHfHLXvaHAFfDTe-6">
                    <mxGeometry width="50" height="50" relative="1" as="geometry">
                        <mxPoint x="450" y="320" as="sourcePoint"/>
                        <mxPoint x="800" y="310" as="targetPoint"/>
                    </mxGeometry>
                </mxCell>
                <mxCell id="C67lPEHfHLXvaHAFfDTe-10" value="" style="endArrow=classic;html=1;strokeWidth=2;exitX=0;exitY=0.5;exitDx=0;exitDy=0;" edge="1" parent="1" source="C67lPEHfHLXvaHAFfDTe-8">
                    <mxGeometry width="50" height="50" relative="1" as="geometry">
                        <mxPoint x="450" y="320" as="sourcePoint"/>
                        <mxPoint x="460" y="310" as="targetPoint"/>
                        <Array as="points">
                            <mxPoint x="460" y="380"/>
                        </Array>
                    </mxGeometry>
                </mxCell>
                <mxCell id="C67lPEHfHLXvaHAFfDTe-11" value="" style="endArrow=classic;html=1;strokeWidth=2;entryX=1;entryY=0.5;entryDx=0;entryDy=0;" edge="1" parent="1" target="C67lPEHfHLXvaHAFfDTe-8">
                    <mxGeometry width="50" height="50" relative="1" as="geometry">
                        <mxPoint x="620" y="310" as="sourcePoint"/>
                        <mxPoint x="470" y="320" as="targetPoint"/>
                        <Array as="points">
                            <mxPoint x="620" y="380"/>
                        </Array>
                    </mxGeometry>
                </mxCell>
                <mxCell id="C67lPEHfHLXvaHAFfDTe-12" value="" style="endArrow=classic;html=1;strokeWidth=2;entryX=0;entryY=0.5;entryDx=0;entryDy=0;exitX=1;exitY=0.5;exitDx=0;exitDy=0;" edge="1" parent="1">
                    <mxGeometry width="50" height="50" relative="1" as="geometry">
                        <mxPoint x="72" y="309.5" as="sourcePoint"/>
                        <mxPoint x="120" y="309.5" as="targetPoint"/>
                    </mxGeometry>
                </mxCell>
                <mxCell id="C67lPEHfHLXvaHAFfDTe-14" value="bila" style="ellipse;whiteSpace=wrap;html=1;aspect=fixed;" vertex="1" parent="1">
                    <mxGeometry x="120" y="410" width="60" height="60" as="geometry"/>
                </mxCell>
                <mxCell id="C67lPEHfHLXvaHAFfDTe-15" value="ekspresi lojik" style="rounded=1;whiteSpace=wrap;html=1;" vertex="1" parent="1">
                    <mxGeometry x="228" y="420" width="100" height="40" as="geometry"/>
                </mxCell>
                <mxCell id="C67lPEHfHLXvaHAFfDTe-16" value="maka" style="ellipse;whiteSpace=wrap;html=1;aspect=fixed;" vertex="1" parent="1">
                    <mxGeometry x="250" y="510" width="60" height="60" as="geometry"/>
                </mxCell>
                <mxCell id="C67lPEHfHLXvaHAFfDTe-17" value="" style="endArrow=classic;html=1;strokeWidth=2;entryX=0;entryY=0.5;entryDx=0;entryDy=0;exitX=1;exitY=0.5;exitDx=0;exitDy=0;" edge="1" source="C67lPEHfHLXvaHAFfDTe-14" target="C67lPEHfHLXvaHAFfDTe-15" parent="1">
                    <mxGeometry width="50" height="50" relative="1" as="geometry">
                        <mxPoint x="78" y="450" as="sourcePoint"/>
                        <mxPoint x="130.00000000000568" y="450" as="targetPoint"/>
                    </mxGeometry>
                </mxCell>
                <mxCell id="C67lPEHfHLXvaHAFfDTe-18" value="" style="endArrow=classic;html=1;strokeWidth=2;" edge="1" source="C67lPEHfHLXvaHAFfDTe-15" target="C67lPEHfHLXvaHAFfDTe-16" parent="1">
                    <mxGeometry width="50" height="50" relative="1" as="geometry">
                        <mxPoint x="189.9999999999941" y="450" as="sourcePoint"/>
                        <mxPoint x="238" y="450" as="targetPoint"/>
                    </mxGeometry>
                </mxCell>
                <mxCell id="C67lPEHfHLXvaHAFfDTe-19" value="pernyataan" style="rounded=1;whiteSpace=wrap;html=1;" vertex="1" parent="1">
                    <mxGeometry x="360" y="520" width="100" height="40" as="geometry"/>
                </mxCell>
                <mxCell id="C67lPEHfHLXvaHAFfDTe-20" value="" style="endArrow=classic;html=1;strokeWidth=2;entryX=0;entryY=0.5;entryDx=0;entryDy=0;exitX=1;exitY=0.5;exitDx=0;exitDy=0;" edge="1" source="C67lPEHfHLXvaHAFfDTe-16" target="C67lPEHfHLXvaHAFfDTe-19" parent="1">
                    <mxGeometry width="50" height="50" relative="1" as="geometry">
                        <mxPoint x="340" y="480" as="sourcePoint"/>
                        <mxPoint x="260" y="550" as="targetPoint"/>
                    </mxGeometry>
                </mxCell>
                <mxCell id="C67lPEHfHLXvaHAFfDTe-21" value="&lt;font style=&quot;font-size: 22px;&quot;&gt;;&lt;/font&gt;" style="ellipse;whiteSpace=wrap;html=1;aspect=fixed;" vertex="1" parent="1">
                    <mxGeometry x="380" y="580" width="60" height="60" as="geometry"/>
                </mxCell>
                <mxCell id="C67lPEHfHLXvaHAFfDTe-22" value="" style="endArrow=classic;html=1;strokeWidth=2;exitX=0;exitY=0.5;exitDx=0;exitDy=0;" edge="1" source="C67lPEHfHLXvaHAFfDTe-21" parent="1">
                    <mxGeometry width="50" height="50" relative="1" as="geometry">
                        <mxPoint x="320" y="550" as="sourcePoint"/>
                        <mxPoint x="330" y="540" as="targetPoint"/>
                        <Array as="points">
                            <mxPoint x="330" y="610"/>
                        </Array>
                    </mxGeometry>
                </mxCell>
                <mxCell id="C67lPEHfHLXvaHAFfDTe-23" value="" style="endArrow=classic;html=1;strokeWidth=2;entryX=1;entryY=0.5;entryDx=0;entryDy=0;" edge="1" target="C67lPEHfHLXvaHAFfDTe-21" parent="1">
                    <mxGeometry width="50" height="50" relative="1" as="geometry">
                        <mxPoint x="480" y="540" as="sourcePoint"/>
                        <mxPoint x="340" y="550" as="targetPoint"/>
                        <Array as="points">
                            <mxPoint x="480" y="610"/>
                        </Array>
                    </mxGeometry>
                </mxCell>
                <mxCell id="C67lPEHfHLXvaHAFfDTe-24" value="" style="endArrow=classic;html=1;strokeWidth=2;entryX=0;entryY=0.5;entryDx=0;entryDy=0;" edge="1" parent="1" target="C67lPEHfHLXvaHAFfDTe-14">
                    <mxGeometry width="50" height="50" relative="1" as="geometry">
                        <mxPoint x="90" y="310" as="sourcePoint"/>
                        <mxPoint x="238" y="320" as="targetPoint"/>
                        <Array as="points">
                            <mxPoint x="90" y="440"/>
                        </Array>
                    </mxGeometry>
                </mxCell>
                <mxCell id="C67lPEHfHLXvaHAFfDTe-25" value="beda" style="ellipse;whiteSpace=wrap;html=1;aspect=fixed;" vertex="1" parent="1">
                    <mxGeometry x="510" y="510" width="60" height="60" as="geometry"/>
                </mxCell>
                <mxCell id="C67lPEHfHLXvaHAFfDTe-27" value="" style="endArrow=classic;html=1;strokeWidth=2;entryX=0;entryY=0.5;entryDx=0;entryDy=0;exitX=1;exitY=0.5;exitDx=0;exitDy=0;" edge="1" parent="1" source="C67lPEHfHLXvaHAFfDTe-19" target="C67lPEHfHLXvaHAFfDTe-25">
                    <mxGeometry width="50" height="50" relative="1" as="geometry">
                        <mxPoint x="320" y="550" as="sourcePoint"/>
                        <mxPoint x="370" y="550" as="targetPoint"/>
                    </mxGeometry>
                </mxCell>
                <mxCell id="C67lPEHfHLXvaHAFfDTe-28" value="pernyataan" style="rounded=1;whiteSpace=wrap;html=1;" vertex="1" parent="1">
                    <mxGeometry x="620" y="520" width="100" height="40" as="geometry"/>
                </mxCell>
                <mxCell id="C67lPEHfHLXvaHAFfDTe-29" value="" style="endArrow=classic;html=1;strokeWidth=2;entryX=0;entryY=0.5;entryDx=0;entryDy=0;exitX=1;exitY=0.5;exitDx=0;exitDy=0;" edge="1" parent="1" target="C67lPEHfHLXvaHAFfDTe-28">
                    <mxGeometry width="50" height="50" relative="1" as="geometry">
                        <mxPoint x="570" y="540" as="sourcePoint"/>
                        <mxPoint x="520" y="550" as="targetPoint"/>
                    </mxGeometry>
                </mxCell>
                <mxCell id="C67lPEHfHLXvaHAFfDTe-30" value="&lt;font style=&quot;font-size: 22px;&quot;&gt;;&lt;/font&gt;" style="ellipse;whiteSpace=wrap;html=1;aspect=fixed;" vertex="1" parent="1">
                    <mxGeometry x="640" y="580" width="60" height="60" as="geometry"/>
                </mxCell>
                <mxCell id="C67lPEHfHLXvaHAFfDTe-31" value="" style="endArrow=classic;html=1;strokeWidth=2;exitX=0;exitY=0.5;exitDx=0;exitDy=0;" edge="1" parent="1" source="C67lPEHfHLXvaHAFfDTe-30">
                    <mxGeometry width="50" height="50" relative="1" as="geometry">
                        <mxPoint x="580" y="550" as="sourcePoint"/>
                        <mxPoint x="590" y="540" as="targetPoint"/>
                        <Array as="points">
                            <mxPoint x="590" y="610"/>
                        </Array>
                    </mxGeometry>
                </mxCell>
                <mxCell id="C67lPEHfHLXvaHAFfDTe-32" value="" style="endArrow=classic;html=1;strokeWidth=2;entryX=1;entryY=0.5;entryDx=0;entryDy=0;" edge="1" parent="1" target="C67lPEHfHLXvaHAFfDTe-30">
                    <mxGeometry width="50" height="50" relative="1" as="geometry">
                        <mxPoint x="740" y="540" as="sourcePoint"/>
                        <mxPoint x="600" y="550" as="targetPoint"/>
                        <Array as="points">
                            <mxPoint x="740" y="610"/>
                        </Array>
                    </mxGeometry>
                </mxCell>
                <mxCell id="C67lPEHfHLXvaHAFfDTe-33" value="" style="endArrow=classic;html=1;strokeWidth=2;exitX=1;exitY=0.5;exitDx=0;exitDy=0;" edge="1" parent="1" source="C67lPEHfHLXvaHAFfDTe-28">
                    <mxGeometry width="50" height="50" relative="1" as="geometry">
                        <mxPoint x="580" y="550" as="sourcePoint"/>
                        <mxPoint x="760" y="310" as="targetPoint"/>
                        <Array as="points">
                            <mxPoint x="760" y="540"/>
                        </Array>
                    </mxGeometry>
                </mxCell>
                <mxCell id="C67lPEHfHLXvaHAFfDTe-34" value="Diagram Sintaks Ekspresi Lojik:" style="text;html=1;align=center;verticalAlign=middle;resizable=0;points=[];autosize=1;strokeColor=none;fillColor=none;fontSize=12;" vertex="1" parent="1">
                    <mxGeometry x="55" y="675" width="190" height="30" as="geometry"/>
                </mxCell>
                <mxCell id="C67lPEHfHLXvaHAFfDTe-35" value="identifier" style="ellipse;whiteSpace=wrap;html=1;aspect=fixed;" vertex="1" parent="1">
                    <mxGeometry x="120" y="705" width="60" height="60" as="geometry"/>
                </mxCell>
                <mxCell id="C67lPEHfHLXvaHAFfDTe-36" value="operator lojik" style="rounded=1;whiteSpace=wrap;html=1;" vertex="1" parent="1">
                    <mxGeometry x="215" y="715" width="100" height="40" as="geometry"/>
                </mxCell>
                <mxCell id="C67lPEHfHLXvaHAFfDTe-37" value="identifier" style="ellipse;whiteSpace=wrap;html=1;aspect=fixed;" vertex="1" parent="1">
                    <mxGeometry x="352" y="705" width="60" height="60" as="geometry"/>
                </mxCell>
                <mxCell id="C67lPEHfHLXvaHAFfDTe-38" value="" style="endArrow=classic;html=1;strokeWidth=2;entryX=0;entryY=0.5;entryDx=0;entryDy=0;exitX=1;exitY=0.5;exitDx=0;exitDy=0;" edge="1" parent="1" source="C67lPEHfHLXvaHAFfDTe-35" target="C67lPEHfHLXvaHAFfDTe-36">
                    <mxGeometry width="50" height="50" relative="1" as="geometry">
                        <mxPoint x="78" y="745" as="sourcePoint"/>
                        <mxPoint x="130.00000000000568" y="745" as="targetPoint"/>
                    </mxGeometry>
                </mxCell>
                <mxCell id="C67lPEHfHLXvaHAFfDTe-39" value="" style="endArrow=classic;html=1;strokeWidth=2;entryX=0;entryY=0.5;entryDx=0;entryDy=0;" edge="1" parent="1" source="C67lPEHfHLXvaHAFfDTe-36" target="C67lPEHfHLXvaHAFfDTe-37">
                    <mxGeometry width="50" height="50" relative="1" as="geometry">
                        <mxPoint x="176.9999999999941" y="745" as="sourcePoint"/>
                        <mxPoint x="225" y="745" as="targetPoint"/>
                    </mxGeometry>
                </mxCell>
                <mxCell id="C67lPEHfHLXvaHAFfDTe-40" value="" style="endArrow=classic;html=1;strokeWidth=2;entryX=0;entryY=0.5;entryDx=0;entryDy=0;exitX=1;exitY=0.5;exitDx=0;exitDy=0;" edge="1" parent="1">
                    <mxGeometry width="50" height="50" relative="1" as="geometry">
                        <mxPoint x="72" y="734.5" as="sourcePoint"/>
                        <mxPoint x="120" y="734.5" as="targetPoint"/>
                    </mxGeometry>
                </mxCell>
                <mxCell id="C67lPEHfHLXvaHAFfDTe-42" value="identifier" style="ellipse;whiteSpace=wrap;html=1;aspect=fixed;" vertex="1" parent="1">
                    <mxGeometry x="120" y="780" width="60" height="60" as="geometry"/>
                </mxCell>
                <mxCell id="C67lPEHfHLXvaHAFfDTe-43" value="operator lojik" style="rounded=1;whiteSpace=wrap;html=1;" vertex="1" parent="1">
                    <mxGeometry x="215" y="790" width="100" height="40" as="geometry"/>
                </mxCell>
                <mxCell id="C67lPEHfHLXvaHAFfDTe-45" value="" style="endArrow=classic;html=1;strokeWidth=2;entryX=0;entryY=0.5;entryDx=0;entryDy=0;exitX=1;exitY=0.5;exitDx=0;exitDy=0;" edge="1" parent="1" source="C67lPEHfHLXvaHAFfDTe-42" target="C67lPEHfHLXvaHAFfDTe-43">
                    <mxGeometry width="50" height="50" relative="1" as="geometry">
                        <mxPoint x="78" y="820" as="sourcePoint"/>
                        <mxPoint x="130.00000000000568" y="820" as="targetPoint"/>
                    </mxGeometry>
                </mxCell>
                <mxCell id="C67lPEHfHLXvaHAFfDTe-46" value="" style="endArrow=classic;html=1;strokeWidth=2;entryX=0;entryY=0.5;entryDx=0;entryDy=0;" edge="1" parent="1" source="C67lPEHfHLXvaHAFfDTe-43" target="C67lPEHfHLXvaHAFfDTe-48">
                    <mxGeometry width="50" height="50" relative="1" as="geometry">
                        <mxPoint x="176.9999999999941" y="820" as="sourcePoint"/>
                        <mxPoint x="367" y="810" as="targetPoint"/>
                    </mxGeometry>
                </mxCell>
                <mxCell id="C67lPEHfHLXvaHAFfDTe-47" value="" style="endArrow=classic;html=1;strokeWidth=2;entryX=0;entryY=0.5;entryDx=0;entryDy=0;" edge="1" parent="1">
                    <mxGeometry width="50" height="50" relative="1" as="geometry">
                        <mxPoint x="90" y="730" as="sourcePoint"/>
                        <mxPoint x="120" y="809.5" as="targetPoint"/>
                        <Array as="points">
                            <mxPoint x="90" y="810"/>
                        </Array>
                    </mxGeometry>
                </mxCell>
                <mxCell id="C67lPEHfHLXvaHAFfDTe-48" value="konstanta" style="rounded=1;whiteSpace=wrap;html=1;" vertex="1" parent="1">
                    <mxGeometry x="352" y="790" width="100" height="40" as="geometry"/>
                </mxCell>
                <mxCell id="C67lPEHfHLXvaHAFfDTe-49" value="" style="endArrow=classic;html=1;strokeWidth=2;exitX=1;exitY=0.5;exitDx=0;exitDy=0;" edge="1" parent="1" source="C67lPEHfHLXvaHAFfDTe-37">
                    <mxGeometry width="50" height="50" relative="1" as="geometry">
                        <mxPoint x="310" y="745" as="sourcePoint"/>
                        <mxPoint x="782" y="735" as="targetPoint"/>
                    </mxGeometry>
                </mxCell>
                <mxCell id="C67lPEHfHLXvaHAFfDTe-50" value="" style="endArrow=classic;html=1;strokeWidth=2;exitX=1;exitY=0.5;exitDx=0;exitDy=0;" edge="1" parent="1" source="C67lPEHfHLXvaHAFfDTe-48">
                    <mxGeometry width="50" height="50" relative="1" as="geometry">
                        <mxPoint x="310" y="820" as="sourcePoint"/>
                        <mxPoint x="492" y="730" as="targetPoint"/>
                        <Array as="points">
                            <mxPoint x="492" y="810"/>
                        </Array>
                    </mxGeometry>
                </mxCell>
                <mxCell id="C67lPEHfHLXvaHAFfDTe-51" value="dan" style="ellipse;whiteSpace=wrap;html=1;aspect=fixed;" vertex="1" parent="1">
                    <mxGeometry x="549" y="755" width="35" height="35" as="geometry"/>
                </mxCell>
                <mxCell id="C67lPEHfHLXvaHAFfDTe-52" value="atau" style="ellipse;whiteSpace=wrap;html=1;aspect=fixed;" vertex="1" parent="1">
                    <mxGeometry x="549" y="795" width="35" height="35" as="geometry"/>
                </mxCell>
                <mxCell id="C67lPEHfHLXvaHAFfDTe-53" value="" style="endArrow=classic;html=1;strokeWidth=2;entryX=0;entryY=0.5;entryDx=0;entryDy=0;" edge="1" parent="1" target="C67lPEHfHLXvaHAFfDTe-52">
                    <mxGeometry width="50" height="50" relative="1" as="geometry">
                        <mxPoint x="509" y="730" as="sourcePoint"/>
                        <mxPoint x="349" y="820" as="targetPoint"/>
                        <Array as="points">
                            <mxPoint x="509" y="813"/>
                        </Array>
                    </mxGeometry>
                </mxCell>
                <mxCell id="C67lPEHfHLXvaHAFfDTe-54" value="" style="endArrow=classic;html=1;strokeWidth=2;entryX=0;entryY=0.5;entryDx=0;entryDy=0;" edge="1" parent="1">
                    <mxGeometry width="50" height="50" relative="1" as="geometry">
                        <mxPoint x="509" y="772" as="sourcePoint"/>
                        <mxPoint x="549" y="772.29" as="targetPoint"/>
                    </mxGeometry>
                </mxCell>
                <mxCell id="C67lPEHfHLXvaHAFfDTe-55" value="ekspresi lojik" style="rounded=1;whiteSpace=wrap;html=1;" vertex="1" parent="1">
                    <mxGeometry x="629" y="770" width="100" height="40" as="geometry"/>
                </mxCell>
                <mxCell id="C67lPEHfHLXvaHAFfDTe-56" value="" style="endArrow=classic;html=1;strokeWidth=2;entryX=-0.019;entryY=0.481;entryDx=0;entryDy=0;entryPerimeter=0;exitX=1;exitY=0.5;exitDx=0;exitDy=0;" edge="1" parent="1" source="C67lPEHfHLXvaHAFfDTe-51" target="C67lPEHfHLXvaHAFfDTe-55">
                    <mxGeometry width="50" height="50" relative="1" as="geometry">
                        <mxPoint x="519" y="782" as="sourcePoint"/>
                        <mxPoint x="559" y="782.29" as="targetPoint"/>
                        <Array as="points">
                            <mxPoint x="599" y="773"/>
                            <mxPoint x="599" y="790"/>
                        </Array>
                    </mxGeometry>
                </mxCell>
                <mxCell id="C67lPEHfHLXvaHAFfDTe-57" value="" style="endArrow=classic;html=1;strokeWidth=2;entryX=0;entryY=0.5;entryDx=0;entryDy=0;exitX=1;exitY=0.5;exitDx=0;exitDy=0;" edge="1" parent="1" source="C67lPEHfHLXvaHAFfDTe-52" target="C67lPEHfHLXvaHAFfDTe-55">
                    <mxGeometry width="50" height="50" relative="1" as="geometry">
                        <mxPoint x="594" y="782.5" as="sourcePoint"/>
                        <mxPoint x="627.0999999999999" y="799.24" as="targetPoint"/>
                        <Array as="points">
                            <mxPoint x="599" y="813"/>
                            <mxPoint x="599" y="790"/>
                        </Array>
                    </mxGeometry>
                </mxCell>
                <mxCell id="C67lPEHfHLXvaHAFfDTe-58" value="" style="endArrow=classic;html=1;strokeWidth=2;exitX=1;exitY=0.5;exitDx=0;exitDy=0;" edge="1" parent="1" source="C67lPEHfHLXvaHAFfDTe-55">
                    <mxGeometry width="50" height="50" relative="1" as="geometry">
                        <mxPoint x="659" y="764.71" as="sourcePoint"/>
                        <mxPoint x="749" y="730" as="targetPoint"/>
                        <Array as="points">
                            <mxPoint x="749" y="790"/>
                        </Array>
                    </mxGeometry>
                </mxCell>
                <mxCell id="C67lPEHfHLXvaHAFfDTe-60" value="Diagram Sintaks Ulang:" style="text;html=1;align=center;verticalAlign=middle;resizable=0;points=[];autosize=1;strokeColor=none;fillColor=none;fontSize=12;" vertex="1" parent="1">
                    <mxGeometry x="55" y="870" width="150" height="30" as="geometry"/>
                </mxCell>
                <mxCell id="C67lPEHfHLXvaHAFfDTe-61" value="dari" style="ellipse;whiteSpace=wrap;html=1;aspect=fixed;" vertex="1" parent="1">
                    <mxGeometry x="120" y="900" width="60" height="60" as="geometry"/>
                </mxCell>
                <mxCell id="C67lPEHfHLXvaHAFfDTe-62" value="pemberian nilai" style="rounded=1;whiteSpace=wrap;html=1;" vertex="1" parent="1">
                    <mxGeometry x="215" y="910" width="100" height="40" as="geometry"/>
                </mxCell>
                <mxCell id="C67lPEHfHLXvaHAFfDTe-63" value="sampai" style="ellipse;whiteSpace=wrap;html=1;aspect=fixed;" vertex="1" parent="1">
                    <mxGeometry x="352" y="900" width="60" height="60" as="geometry"/>
                </mxCell>
                <mxCell id="C67lPEHfHLXvaHAFfDTe-64" value="" style="endArrow=classic;html=1;strokeWidth=2;entryX=0;entryY=0.5;entryDx=0;entryDy=0;exitX=1;exitY=0.5;exitDx=0;exitDy=0;" edge="1" parent="1" source="C67lPEHfHLXvaHAFfDTe-61" target="C67lPEHfHLXvaHAFfDTe-62">
                    <mxGeometry width="50" height="50" relative="1" as="geometry">
                        <mxPoint x="78" y="940" as="sourcePoint"/>
                        <mxPoint x="130.00000000000568" y="940" as="targetPoint"/>
                    </mxGeometry>
                </mxCell>
                <mxCell id="C67lPEHfHLXvaHAFfDTe-65" value="" style="endArrow=classic;html=1;strokeWidth=2;entryX=0;entryY=0.5;entryDx=0;entryDy=0;" edge="1" parent="1" source="C67lPEHfHLXvaHAFfDTe-62" target="C67lPEHfHLXvaHAFfDTe-63">
                    <mxGeometry width="50" height="50" relative="1" as="geometry">
                        <mxPoint x="176.9999999999941" y="940" as="sourcePoint"/>
                        <mxPoint x="225" y="940" as="targetPoint"/>
                    </mxGeometry>
                </mxCell>
                <mxCell id="C67lPEHfHLXvaHAFfDTe-66" value="" style="endArrow=classic;html=1;strokeWidth=2;entryX=0;entryY=0.5;entryDx=0;entryDy=0;exitX=1;exitY=0.5;exitDx=0;exitDy=0;" edge="1" parent="1">
                    <mxGeometry width="50" height="50" relative="1" as="geometry">
                        <mxPoint x="71.99999999999989" y="929.64" as="sourcePoint"/>
                        <mxPoint x="120" y="929.64" as="targetPoint"/>
                    </mxGeometry>
                </mxCell>
                <mxCell id="C67lPEHfHLXvaHAFfDTe-67" value="konstanta" style="rounded=1;whiteSpace=wrap;html=1;" vertex="1" parent="1">
                    <mxGeometry x="449" y="910" width="81" height="40" as="geometry"/>
                </mxCell>
                <mxCell id="C67lPEHfHLXvaHAFfDTe-68" value="" style="endArrow=classic;html=1;strokeWidth=2;entryX=0;entryY=0.5;entryDx=0;entryDy=0;exitX=1;exitY=0.5;exitDx=0;exitDy=0;" edge="1" parent="1" source="C67lPEHfHLXvaHAFfDTe-63" target="C67lPEHfHLXvaHAFfDTe-67">
                    <mxGeometry width="50" height="50" relative="1" as="geometry">
                        <mxPoint x="450" y="880" as="sourcePoint"/>
                        <mxPoint x="362" y="940" as="targetPoint"/>
                    </mxGeometry>
                </mxCell>
                <mxCell id="C67lPEHfHLXvaHAFfDTe-70" value="lakukan" style="ellipse;whiteSpace=wrap;html=1;aspect=fixed;" vertex="1" parent="1">
                    <mxGeometry x="570" y="900" width="60" height="60" as="geometry"/>
                </mxCell>
                <mxCell id="C67lPEHfHLXvaHAFfDTe-71" value="" style="endArrow=classic;html=1;strokeWidth=2;entryX=0;entryY=0.5;entryDx=0;entryDy=0;exitX=1;exitY=0.5;exitDx=0;exitDy=0;" edge="1" parent="1" source="C67lPEHfHLXvaHAFfDTe-67" target="C67lPEHfHLXvaHAFfDTe-70">
                    <mxGeometry width="50" height="50" relative="1" as="geometry">
                        <mxPoint x="550" y="930" as="sourcePoint"/>
                        <mxPoint x="459" y="940" as="targetPoint"/>
                    </mxGeometry>
                </mxCell>
                <mxCell id="C67lPEHfHLXvaHAFfDTe-72" value="pernyataan" style="rounded=1;whiteSpace=wrap;html=1;" vertex="1" parent="1">
                    <mxGeometry x="670" y="910" width="80" height="40" as="geometry"/>
                </mxCell>
                <mxCell id="C67lPEHfHLXvaHAFfDTe-73" value="" style="endArrow=classic;html=1;strokeWidth=2;entryX=0;entryY=0.5;entryDx=0;entryDy=0;exitX=1;exitY=0.5;exitDx=0;exitDy=0;" edge="1" parent="1" source="C67lPEHfHLXvaHAFfDTe-70" target="C67lPEHfHLXvaHAFfDTe-72">
                    <mxGeometry width="50" height="50" relative="1" as="geometry">
                        <mxPoint x="540.0000000000002" y="940" as="sourcePoint"/>
                        <mxPoint x="580.0000000000052" y="940" as="targetPoint"/>
                    </mxGeometry>
                </mxCell>
                <mxCell id="C67lPEHfHLXvaHAFfDTe-74" value="" style="endArrow=classic;html=1;strokeWidth=2;entryX=0;entryY=0.5;entryDx=0;entryDy=0;exitX=1;exitY=0.5;exitDx=0;exitDy=0;" edge="1" parent="1">
                    <mxGeometry width="50" height="50" relative="1" as="geometry">
                        <mxPoint x="749.9999999999945" y="929.64" as="sourcePoint"/>
                        <mxPoint x="790" y="929.64" as="targetPoint"/>
                    </mxGeometry>
                </mxCell>
            </root>
        </mxGraphModel>
    </diagram>
    <diagram id="ykGIEGp9VVkJIQj835nK" name="Page-1">
        <mxGraphModel dx="1044" dy="456" grid="1" gridSize="10" guides="1" tooltips="1" connect="1" arrows="1" fold="1" page="1" pageScale="1" pageWidth="827" pageHeight="1169" math="0" shadow="0">
            <root>
                <mxCell id="0"/>
                <mxCell id="1" parent="0"/>
                <mxCell id="2" value="deklarasi" style="rounded=1;whiteSpace=wrap;html=1;" parent="1" vertex="1">
                    <mxGeometry x="109" y="80" width="100" height="40" as="geometry"/>
                </mxCell>
                <mxCell id="3" value="mulai" style="ellipse;whiteSpace=wrap;html=1;aspect=fixed;" parent="1" vertex="1">
                    <mxGeometry x="261" y="70" width="60" height="60" as="geometry"/>
                </mxCell>
                <mxCell id="4" value="pernyataan" style="rounded=1;whiteSpace=wrap;html=1;" parent="1" vertex="1">
                    <mxGeometry x="369" y="80" width="100" height="40" as="geometry"/>
                </mxCell>
                <mxCell id="5" value="selesai" style="ellipse;whiteSpace=wrap;html=1;aspect=fixed;" parent="1" vertex="1">
                    <mxGeometry x="521" y="70" width="60" height="60" as="geometry"/>
                </mxCell>
                <mxCell id="6" value="" style="endArrow=classic;html=1;strokeWidth=2;entryX=0;entryY=0.5;entryDx=0;entryDy=0;" parent="1" target="2" edge="1">
                    <mxGeometry width="50" height="50" relative="1" as="geometry">
                        <mxPoint x="49" y="100" as="sourcePoint"/>
                        <mxPoint x="79" y="80" as="targetPoint"/>
                    </mxGeometry>
                </mxCell>
                <mxCell id="7" value="" style="endArrow=classic;html=1;strokeWidth=2;entryX=0;entryY=0.5;entryDx=0;entryDy=0;exitX=1;exitY=0.5;exitDx=0;exitDy=0;" parent="1" source="2" target="3" edge="1">
                    <mxGeometry width="50" height="50" relative="1" as="geometry">
                        <mxPoint x="59" y="110" as="sourcePoint"/>
                        <mxPoint x="119" y="110" as="targetPoint"/>
                    </mxGeometry>
                </mxCell>
                <mxCell id="8" value="" style="endArrow=classic;html=1;strokeWidth=2;entryX=0;entryY=0.5;entryDx=0;entryDy=0;exitX=1;exitY=0.5;exitDx=0;exitDy=0;" parent="1" source="3" target="4" edge="1">
                    <mxGeometry width="50" height="50" relative="1" as="geometry">
                        <mxPoint x="219" y="110" as="sourcePoint"/>
                        <mxPoint x="271.0000000000057" y="110" as="targetPoint"/>
                    </mxGeometry>
                </mxCell>
                <mxCell id="9" value="" style="endArrow=classic;html=1;strokeWidth=2;entryX=0;entryY=0.5;entryDx=0;entryDy=0;" parent="1" source="4" target="5" edge="1">
                    <mxGeometry width="50" height="50" relative="1" as="geometry">
                        <mxPoint x="330.9999999999941" y="110" as="sourcePoint"/>
                        <mxPoint x="379" y="110" as="targetPoint"/>
                    </mxGeometry>
                </mxCell>
                <mxCell id="10" value="deklarasi variabel" style="rounded=1;whiteSpace=wrap;html=1;" parent="1" vertex="1">
                    <mxGeometry x="261" y="220" width="119" height="40" as="geometry"/>
                </mxCell>
                <mxCell id="11" value="mulai" style="ellipse;whiteSpace=wrap;html=1;aspect=fixed;" parent="1" vertex="1">
                    <mxGeometry x="109" y="210" width="60" height="60" as="geometry"/>
                </mxCell>
                <mxCell id="12" value="Diagram Sintaks Blok Program:" style="text;whiteSpace=wrap;html=1;" parent="1" vertex="1">
                    <mxGeometry x="39" y="50" width="200" height="20" as="geometry"/>
                </mxCell>
                <mxCell id="13" value="Diagram Sintaks Deklarasi:" style="text;whiteSpace=wrap;html=1;" parent="1" vertex="1">
                    <mxGeometry x="40" y="180" width="180" height="20" as="geometry"/>
                </mxCell>
                <mxCell id="14" value="" style="endArrow=classic;html=1;strokeWidth=2;entryX=0;entryY=0.5;entryDx=0;entryDy=0;" parent="1" target="11" edge="1">
                    <mxGeometry width="50" height="50" relative="1" as="geometry">
                        <mxPoint x="49" y="240" as="sourcePoint"/>
                        <mxPoint x="109" y="240" as="targetPoint"/>
                    </mxGeometry>
                </mxCell>
                <mxCell id="15" value="" style="endArrow=classic;html=1;strokeWidth=2;entryX=0;entryY=0.5;entryDx=0;entryDy=0;exitX=1;exitY=0.5;exitDx=0;exitDy=0;" parent="1" source="11" target="10" edge="1">
                    <mxGeometry width="50" height="50" relative="1" as="geometry">
                        <mxPoint x="219" y="110" as="sourcePoint"/>
                        <mxPoint x="271" y="110" as="targetPoint"/>
                    </mxGeometry>
                </mxCell>
                <mxCell id="16" value="" style="endArrow=classic;html=1;strokeWidth=2;exitX=1;exitY=0.5;exitDx=0;exitDy=0;" parent="1" source="10" edge="1">
                    <mxGeometry width="50" height="50" relative="1" as="geometry">
                        <mxPoint x="390" y="239.6" as="sourcePoint"/>
                        <mxPoint x="450" y="240" as="targetPoint"/>
                    </mxGeometry>
                </mxCell>
                <mxCell id="17" value="&lt;font style=&quot;font-size: 16px;&quot;&gt;;&lt;/font&gt;" style="ellipse;whiteSpace=wrap;html=1;aspect=fixed;" parent="1" vertex="1">
                    <mxGeometry x="180" y="300" width="60" height="60" as="geometry"/>
                </mxCell>
                <mxCell id="18" value="" style="endArrow=classic;html=1;strokeWidth=2;exitX=0.5;exitY=0;exitDx=0;exitDy=0;" parent="1" source="17" edge="1">
                    <mxGeometry width="50" height="50" relative="1" as="geometry">
                        <mxPoint x="179" y="250" as="sourcePoint"/>
                        <mxPoint x="210" y="240" as="targetPoint"/>
                    </mxGeometry>
                </mxCell>
                <mxCell id="19" value="" style="endArrow=classic;html=1;strokeWidth=2;entryX=1;entryY=0.5;entryDx=0;entryDy=0;" parent="1" target="17" edge="1">
                    <mxGeometry width="50" height="50" relative="1" as="geometry">
                        <mxPoint x="410" y="240" as="sourcePoint"/>
                        <mxPoint x="220" y="250" as="targetPoint"/>
                        <Array as="points">
                            <mxPoint x="410" y="330"/>
                        </Array>
                    </mxGeometry>
                </mxCell>
                <mxCell id="20" value="Diagram Sintaks Deklarasi Variabel:" style="text;whiteSpace=wrap;html=1;fontSize=12;" parent="1" vertex="1">
                    <mxGeometry x="39" y="420" width="200" height="20" as="geometry"/>
                </mxCell>
                <mxCell id="21" value="identifier" style="ellipse;whiteSpace=wrap;html=1;aspect=fixed;" parent="1" vertex="1">
                    <mxGeometry x="109" y="450" width="60" height="60" as="geometry"/>
                </mxCell>
                <mxCell id="22" value="tipe" style="ellipse;whiteSpace=wrap;html=1;aspect=fixed;" parent="1" vertex="1">
                    <mxGeometry x="240" y="450" width="60" height="60" as="geometry"/>
                </mxCell>
                <mxCell id="23" value="tipe data" style="rounded=1;whiteSpace=wrap;html=1;" parent="1" vertex="1">
                    <mxGeometry x="369" y="460" width="100" height="40" as="geometry"/>
                </mxCell>
                <mxCell id="24" value="" style="endArrow=classic;html=1;strokeWidth=2;entryX=0;entryY=0.5;entryDx=0;entryDy=0;" parent="1" edge="1">
                    <mxGeometry width="50" height="50" relative="1" as="geometry">
                        <mxPoint x="49" y="479.6" as="sourcePoint"/>
                        <mxPoint x="109" y="479.6" as="targetPoint"/>
                    </mxGeometry>
                </mxCell>
                <mxCell id="25" value="" style="endArrow=classic;html=1;strokeWidth=2;entryX=0;entryY=0.5;entryDx=0;entryDy=0;exitX=1;exitY=0.5;exitDx=0;exitDy=0;" parent="1" source="21" target="22" edge="1">
                    <mxGeometry width="50" height="50" relative="1" as="geometry">
                        <mxPoint x="200" y="450" as="sourcePoint"/>
                        <mxPoint x="119" y="489.6" as="targetPoint"/>
                    </mxGeometry>
                </mxCell>
                <mxCell id="26" value="" style="endArrow=classic;html=1;strokeWidth=2;entryX=0;entryY=0.5;entryDx=0;entryDy=0;exitX=1;exitY=0.5;exitDx=0;exitDy=0;" parent="1" source="22" target="23" edge="1">
                    <mxGeometry width="50" height="50" relative="1" as="geometry">
                        <mxPoint x="360" y="430" as="sourcePoint"/>
                        <mxPoint x="250" y="490" as="targetPoint"/>
                    </mxGeometry>
                </mxCell>
                <mxCell id="28" value="Diagram Sintaks Pernyataan:" style="text;html=1;align=center;verticalAlign=middle;resizable=0;points=[];autosize=1;strokeColor=none;fillColor=none;fontSize=12;" parent="1" vertex="1">
                    <mxGeometry x="29" y="550" width="180" height="30" as="geometry"/>
                </mxCell>
                <mxCell id="29" value="pemberian nilai" style="rounded=1;whiteSpace=wrap;html=1;" parent="1" vertex="1">
                    <mxGeometry x="109" y="580" width="121" height="40" as="geometry"/>
                </mxCell>
                <mxCell id="30" value="struk kontrol" style="rounded=1;whiteSpace=wrap;html=1;" parent="1" vertex="1">
                    <mxGeometry x="109" y="660" width="121" height="40" as="geometry"/>
                </mxCell>
                <mxCell id="31" value="" style="endArrow=classic;html=1;strokeWidth=2;entryX=0;entryY=0.5;entryDx=0;entryDy=0;" parent="1" edge="1">
                    <mxGeometry width="50" height="50" relative="1" as="geometry">
                        <mxPoint x="49" y="599.6" as="sourcePoint"/>
                        <mxPoint x="109" y="599.6" as="targetPoint"/>
                    </mxGeometry>
                </mxCell>
                <mxCell id="32" value="" style="endArrow=classic;html=1;strokeWidth=2;entryX=0;entryY=0.5;entryDx=0;entryDy=0;" parent="1" target="30" edge="1">
                    <mxGeometry width="50" height="50" relative="1" as="geometry">
                        <mxPoint x="80" y="600" as="sourcePoint"/>
                        <mxPoint x="119" y="609.5999999999999" as="targetPoint"/>
                        <Array as="points">
                            <mxPoint x="80" y="680"/>
                        </Array>
                    </mxGeometry>
                </mxCell>
                <mxCell id="33" value="" style="endArrow=classic;html=1;strokeWidth=2;entryX=0;entryY=0.5;entryDx=0;entryDy=0;" parent="1" edge="1">
                    <mxGeometry width="50" height="50" relative="1" as="geometry">
                        <mxPoint x="230" y="599.5999999999999" as="sourcePoint"/>
                        <mxPoint x="290" y="599.5999999999999" as="targetPoint"/>
                    </mxGeometry>
                </mxCell>
                <mxCell id="34" value="" style="endArrow=classic;html=1;strokeWidth=2;exitX=1;exitY=0.5;exitDx=0;exitDy=0;" parent="1" source="30" edge="1">
                    <mxGeometry width="50" height="50" relative="1" as="geometry">
                        <mxPoint x="240" y="609.5999999999999" as="sourcePoint"/>
                        <mxPoint x="260" y="600" as="targetPoint"/>
                        <Array as="points">
                            <mxPoint x="260" y="680"/>
                        </Array>
                    </mxGeometry>
                </mxCell>
                <mxCell id="35" value="Diagram Sintaks Pemberian Nilai:" style="text;html=1;align=center;verticalAlign=middle;resizable=0;points=[];autosize=1;strokeColor=none;fillColor=none;fontSize=12;" parent="1" vertex="1">
                    <mxGeometry x="30" y="740" width="200" height="30" as="geometry"/>
                </mxCell>
                <mxCell id="36" value="" style="endArrow=classic;html=1;strokeWidth=2;entryX=0;entryY=0.5;entryDx=0;entryDy=0;" parent="1" edge="1">
                    <mxGeometry width="50" height="50" relative="1" as="geometry">
                        <mxPoint x="469" y="479.6" as="sourcePoint"/>
                        <mxPoint x="529" y="479.6" as="targetPoint"/>
                    </mxGeometry>
                </mxCell>
                <mxCell id="37" value="identifier" style="ellipse;whiteSpace=wrap;html=1;aspect=fixed;" parent="1" vertex="1">
                    <mxGeometry x="110" y="770" width="60" height="60" as="geometry"/>
                </mxCell>
                <mxCell id="38" value="masuk" style="ellipse;whiteSpace=wrap;html=1;aspect=fixed;" parent="1" vertex="1">
                    <mxGeometry x="241" y="770" width="60" height="60" as="geometry"/>
                </mxCell>
                <mxCell id="39" value="ekspresi" style="rounded=1;whiteSpace=wrap;html=1;" parent="1" vertex="1">
                    <mxGeometry x="370" y="780" width="100" height="40" as="geometry"/>
                </mxCell>
                <mxCell id="40" value="" style="endArrow=classic;html=1;strokeWidth=2;entryX=0;entryY=0.5;entryDx=0;entryDy=0;" parent="1" edge="1">
                    <mxGeometry width="50" height="50" relative="1" as="geometry">
                        <mxPoint x="50" y="799.6" as="sourcePoint"/>
                        <mxPoint x="110" y="799.6" as="targetPoint"/>
                    </mxGeometry>
                </mxCell>
                <mxCell id="41" value="" style="endArrow=classic;html=1;strokeWidth=2;entryX=0;entryY=0.5;entryDx=0;entryDy=0;exitX=1;exitY=0.5;exitDx=0;exitDy=0;" parent="1" source="37" target="38" edge="1">
                    <mxGeometry width="50" height="50" relative="1" as="geometry">
                        <mxPoint x="201" y="770" as="sourcePoint"/>
                        <mxPoint x="120" y="809.6" as="targetPoint"/>
                    </mxGeometry>
                </mxCell>
                <mxCell id="42" value="" style="endArrow=classic;html=1;strokeWidth=2;entryX=0;entryY=0.5;entryDx=0;entryDy=0;exitX=1;exitY=0.5;exitDx=0;exitDy=0;" parent="1" source="38" target="39" edge="1">
                    <mxGeometry width="50" height="50" relative="1" as="geometry">
                        <mxPoint x="361" y="750" as="sourcePoint"/>
                        <mxPoint x="251" y="810" as="targetPoint"/>
                    </mxGeometry>
                </mxCell>
                <mxCell id="43" value="" style="endArrow=classic;html=1;strokeWidth=2;entryX=0;entryY=0.5;entryDx=0;entryDy=0;" parent="1" edge="1">
                    <mxGeometry width="50" height="50" relative="1" as="geometry">
                        <mxPoint x="470" y="799.6" as="sourcePoint"/>
                        <mxPoint x="530" y="799.6" as="targetPoint"/>
                    </mxGeometry>
                </mxCell>
                <mxCell id="44" value="Diagram Sintaks Ekspresi:" style="text;html=1;align=center;verticalAlign=middle;resizable=0;points=[];autosize=1;strokeColor=none;fillColor=none;fontSize=12;" parent="1" vertex="1">
                    <mxGeometry x="30" y="870" width="160" height="30" as="geometry"/>
                </mxCell>
                <mxCell id="45" value="pemberian nilai" style="rounded=1;whiteSpace=wrap;html=1;" parent="1" vertex="1">
                    <mxGeometry x="130" y="900" width="121" height="40" as="geometry"/>
                </mxCell>
                <mxCell id="46" value="struk kontrol" style="rounded=1;whiteSpace=wrap;html=1;" parent="1" vertex="1">
                    <mxGeometry x="109" y="1070" width="121" height="40" as="geometry"/>
                </mxCell>
                <mxCell id="47" value="" style="endArrow=classic;html=1;strokeWidth=2;" parent="1" target="51" edge="1">
                    <mxGeometry width="50" height="50" relative="1" as="geometry">
                        <mxPoint x="49" y="1009.5999999999999" as="sourcePoint"/>
                        <mxPoint x="109" y="1009.5999999999999" as="targetPoint"/>
                    </mxGeometry>
                </mxCell>
                <mxCell id="48" value="" style="endArrow=classic;html=1;strokeWidth=2;exitX=0;exitY=0.5;exitDx=0;exitDy=0;" parent="1" source="46" edge="1">
                    <mxGeometry width="50" height="50" relative="1" as="geometry">
                        <mxPoint x="50" y="1080" as="sourcePoint"/>
                        <mxPoint x="80" y="1010" as="targetPoint"/>
                        <Array as="points">
                            <mxPoint x="80" y="1090"/>
                        </Array>
                    </mxGeometry>
                </mxCell>
                <mxCell id="49" value="" style="endArrow=classic;html=1;strokeWidth=2;exitX=1;exitY=0.5;exitDx=0;exitDy=0;" parent="1" source="51" edge="1">
                    <mxGeometry width="50" height="50" relative="1" as="geometry">
                        <mxPoint x="230" y="1009.5999999999999" as="sourcePoint"/>
                        <mxPoint x="310" y="1010" as="targetPoint"/>
                    </mxGeometry>
                </mxCell>
                <mxCell id="50" value="" style="endArrow=classic;html=1;strokeWidth=2;entryX=1;entryY=0.5;entryDx=0;entryDy=0;" parent="1" target="46" edge="1">
                    <mxGeometry width="50" height="50" relative="1" as="geometry">
                        <mxPoint x="260" y="1010" as="sourcePoint"/>
                        <mxPoint x="260" y="1010" as="targetPoint"/>
                        <Array as="points">
                            <mxPoint x="260" y="1090"/>
                        </Array>
                    </mxGeometry>
                </mxCell>
                <mxCell id="51" value="identifier" style="ellipse;whiteSpace=wrap;html=1;aspect=fixed;" parent="1" vertex="1">
                    <mxGeometry x="139.5" y="980" width="60" height="60" as="geometry"/>
                </mxCell>
                <mxCell id="52" value="" style="endArrow=classic;html=1;strokeWidth=2;entryX=0;entryY=0.5;entryDx=0;entryDy=0;" parent="1" target="45" edge="1">
                    <mxGeometry width="50" height="50" relative="1" as="geometry">
                        <mxPoint x="100" y="1010" as="sourcePoint"/>
                        <mxPoint x="120" y="799.5999999999999" as="targetPoint"/>
                        <Array as="points">
                            <mxPoint x="100" y="920"/>
                        </Array>
                    </mxGeometry>
                </mxCell>
                <mxCell id="53" value="" style="endArrow=classic;html=1;strokeWidth=2;exitX=1;exitY=0.5;exitDx=0;exitDy=0;" parent="1" source="45" edge="1">
                    <mxGeometry width="50" height="50" relative="1" as="geometry">
                        <mxPoint x="60" y="799.5999999999999" as="sourcePoint"/>
                        <mxPoint x="280" y="1010" as="targetPoint"/>
                        <Array as="points">
                            <mxPoint x="280" y="920"/>
                        </Array>
                    </mxGeometry>
                </mxCell>
            </root>
        </mxGraphModel>
    </diagram>
</mxfile>